<svg xmlns="http://www.w3.org/2000/svg" xmlns:xlink="http://www.w3.org/1999/xlink" width="1200px" height="1200px" viewBox="0 0 1200 1200">
    <g id="e63eeb6b-a9c5-4056-a333-472d127d3c79">
<g style="">
		<g id="e63eeb6b-a9c5-4056-a333-472d127d3c79-child-0">
<path style="stroke: rgb(193,193,193); stroke-opacity: 1.00; stroke-width: 0; stroke-dasharray: none; stroke-linecap: butt; stroke-dashoffset: 0; stroke-linejoin: miter; stroke-miterlimit: 4; fill: rgb(22,33,29); fill-opacity: 1.00; fill-rule: nonzero; opacity: 1;" transform="matrix(1.171875 0 0 1.171875 600 600) matrix(1 0 0 1 51.98228 362)  translate(-563.982279, -874)" d="M 1024.00 724.00 L 1024.00 1024.00 L 683.00 1024.00 L 683.00 724.00 L 1024.00 724.00 Z M 168.35 917.50 C 168.66 919.70 168.55 931.85 168.12 944.50 L 167.33 967.50 L 167.16 941.25 C 167.01 916.99 166.87 915.00 165.25 914.97 C 159.87 914.87 147.67 912.72 142.17 910.89 C 133.78 908.10 121.81 899.97 116.84 893.68 C 98.58 870.58 99.86 840.08 119.93 820.00 C 136.61 803.32 164.64 798.12 184.17 808.09 C 190.28 811.21 197.65 818.57 200.45 824.38 C 203.11 829.88 205.26 838.00 204.05 838.00 C 203.65 838.00 202.75 836.09 202.06 833.75 C 197.88 819.58 185.98 808.60 172.50 806.46 L 168.50 805.82 L 168.15 831.66 C 167.96 845.87 167.62 857.69 167.40 857.92 C 167.18 858.15 167.00 846.33 167.00 831.67 L 167.00 805.00 L 163.75 805.02 C 161.96 805.03 157.52 805.67 153.88 806.44 C 130.24 811.45 112.03 833.89 112.03 858.00 C 112.03 883.36 131.69 906.36 158.02 911.80 C 163.15 912.87 166.29 913.10 166.91 912.47 C 167.51 911.85 164.81 904.25 159.44 891.50 C 154.80 880.50 150.54 870.07 149.96 868.33 C 148.42 863.74 147.08 863.02 138.35 862.09 C 132.69 861.50 139.62 861.23 163.25 861.13 L 196.00 861.00 L 196.00 905.63 L 192.01 907.87 C 189.82 909.10 185.84 910.87 183.17 911.81 L 178.32 913.50 L 184.41 927.69 C 187.76 935.49 190.74 942.10 191.03 942.39 C 191.33 942.67 200.77 924.47 212.02 901.95 C 223.28 879.43 233.05 861.00 233.74 861.00 C 234.68 861.00 189.40 953.76 187.42 955.89 C 187.22 956.10 186.57 954.99 185.97 953.42 C 183.32 946.44 169.56 915.40 168.72 914.50 C 168.15 913.88 168.00 915.01 168.35 917.50 Z M 863.04 940.28 C 866.49 948.41 869.65 954.94 870.08 954.78 C 870.77 954.53 917.00 862.59 917.00 861.46 C 917.00 861.21 916.53 861.00 915.96 861.00 C 915.39 861.00 906.63 877.76 896.48 898.25 C 886.34 918.74 877.06 937.25 875.88 939.38 L 873.72 943.26 L 867.86 929.00 C 864.64 921.15 862.00 914.38 862.00 913.94 C 862.00 913.51 863.69 912.62 865.75 911.96 C 867.81 911.30 871.64 909.62 874.25 908.22 L 879.00 905.68 L 879.00 861.00 L 846.25 861.16 C 828.24 861.25 816.65 861.62 820.50 861.98 C 824.35 862.34 828.22 862.96 829.10 863.37 C 831.02 864.24 831.87 866.07 845.88 899.50 C 851.88 913.80 859.60 932.15 863.04 940.28 Z M 850.00 941.33 C 850.00 955.63 850.22 967.12 850.48 966.85 C 851.23 966.11 851.19 915.66 850.44 913.72 C 849.97 912.47 848.63 912.00 845.57 912.00 C 835.87 912.00 822.26 905.91 813.18 897.50 C 805.66 890.55 801.84 884.62 798.57 874.82 C 795.47 865.55 795.06 852.52 797.61 843.93 C 803.48 824.17 819.72 809.25 838.88 806.02 C 839.80 805.86 840.64 805.71 841.41 805.56 C 844.32 805.02 846.18 804.67 847.40 805.40 C 849.91 806.91 849.65 813.02 850.03 831.51 L 850.55 857.50 L 850.78 831.62 L 851.00 805.74 L 854.54 806.31 C 859.62 807.14 868.69 811.51 873.50 815.44 C 877.90 819.05 882.98 827.60 885.11 835.00 C 886.22 838.82 886.47 839.11 886.76 836.92 C 887.23 833.37 883.49 823.81 879.64 818.72 C 876.02 813.93 865.75 806.64 860.22 804.93 C 853.60 802.88 838.10 802.61 830.95 804.40 C 805.22 810.86 787.86 832.15 787.65 857.50 C 787.52 872.30 792.45 885.13 802.29 895.65 C 812.66 906.74 823.72 912.09 840.54 914.16 L 850.00 915.32 Z M 865.70 908.80 C 861.12 910.77 860.00 910.26 857.84 905.25 C 856.72 902.64 854.72 898.08 853.40 895.13 C 851.35 890.53 850.97 888.01 850.81 877.63 L 850.61 865.50 L 849.50 885.50 L 846.82 879.50 C 845.35 876.20 843.22 871.14 842.08 868.25 L 840.03 863.00 L 855.46 863.00 C 856.73 863.00 857.91 862.99 859.01 862.99 C 866.04 862.95 869.79 862.93 871.79 864.79 C 874.07 866.91 874.05 871.50 874.01 881.32 C 874.01 882.66 874.00 884.11 874.00 885.65 L 874.00 903.86 L 871.25 905.73 C 869.74 906.76 867.24 908.14 865.70 908.80 Z M 176.04 908.60 C 177.14 911.49 178.30 911.35 186.25 907.35 L 191.00 904.97 L 191.00 885.55 C 191.00 869.24 190.75 865.89 189.43 864.57 C 188.14 863.28 185.13 863.00 172.52 863.00 L 157.19 863.00 L 161.35 873.49 C 163.63 879.26 165.84 883.99 166.25 883.99 C 166.66 884.00 167.06 880.06 167.13 875.25 C 167.24 867.49 167.34 867.01 168.07 871.00 C 168.52 873.47 168.86 879.10 168.82 883.50 C 168.76 890.37 169.20 892.53 171.91 898.78 C 173.65 902.79 175.51 907.20 176.04 908.60 Z M 170.00 792.89 C 170.00 795.31 167.50 796.31 165.99 794.48 C 164.52 792.71 165.54 791.00 168.06 791.00 C 169.30 791.00 170.00 791.69 170.00 792.89 Z M 848.44 793.90 C 849.44 795.52 851.97 795.24 852.66 793.43 C 852.99 792.57 852.75 791.35 852.13 790.73 C 850.72 789.32 847.38 792.19 848.44 793.90 Z" stroke-linecap="round"></path>
</g>
		<g id="e63eeb6b-a9c5-4056-a333-472d127d3c79-child-1">
<path style="stroke: rgb(193,193,193); stroke-opacity: 1.00; stroke-width: 0; stroke-dasharray: none; stroke-linecap: butt; stroke-dashoffset: 0; stroke-linejoin: miter; stroke-miterlimit: 4; fill: rgb(40,92,80); fill-opacity: 1.00; fill-rule: nonzero; opacity: 1;" transform="matrix(1.171875 0 0 1.171875 600 600) matrix(1 0 0 1 0 97.25495)  translate(-512, -609.254949)" d="M 341.00 1024.00 L 341.00 724.00 L 683.00 724.00 L 683.00 1024.00 L 341.00 1024.00 Z M 560.99 552.84 C 560.99 553.20 560.17 554.74 559.17 556.25 L 557.36 559.00 L 546.00 532.75 C 539.76 518.31 529.28 494.12 522.72 479.00 C 516.16 463.88 508.42 445.88 505.52 439.00 C 482.92 385.39 465.43 345.06 463.79 342.73 C 459.79 337.06 455.03 335.61 438.50 335.03 C 429.26 334.70 423.60 334.12 423.75 333.50 C 423.91 332.85 450.71 332.41 501.00 332.24 L 578.00 331.99 L 578.00 436.79 L 573.25 439.83 C 565.45 444.82 552.05 450.80 543.25 453.23 C 537.99 454.68 535.16 455.93 535.44 456.69 C 538.16 463.92 566.51 528.99 566.93 528.97 C 567.24 528.95 589.34 484.73 616.03 430.72 C 661.47 338.76 664.74 332.48 667.28 332.18 C 668.78 332.01 670.00 332.06 670.00 332.29 C 670.00 332.52 645.47 382.09 615.50 442.44 C 585.53 502.79 561.00 552.47 560.99 552.84 Z M 507.82 456.75 C 508.14 458.98 508.03 459.00 496.32 458.90 C 455.29 458.56 416.21 441.20 390.20 411.76 C 369.59 388.45 358.62 361.49 357.28 330.87 C 355.80 297.17 365.75 267.99 387.56 242.09 C 406.12 220.04 430.94 205.03 461.65 197.27 C 471.80 194.70 473.88 194.52 494.00 194.51 C 517.43 194.50 522.31 195.22 538.09 200.97 C 561.40 209.48 579.25 225.24 589.49 246.35 C 593.93 255.49 597.98 269.54 597.99 275.83 C 598.01 281.72 595.75 278.78 593.47 269.94 C 589.10 253.00 582.86 241.34 571.89 229.58 C 563.18 220.26 554.99 214.27 543.74 209.00 C 502.63 189.74 452.70 199.10 416.88 232.79 C 391.50 256.67 378.53 285.09 377.31 319.50 C 376.51 341.93 380.24 360.23 389.52 379.50 C 409.84 421.66 452.40 451.24 496.50 453.85 C 506.92 454.47 507.52 454.62 507.82 456.75 Z M 530.99 446.66 L 532.81 450.82 L 539.38 448.44 C 546.74 445.76 559.08 439.75 563.25 436.81 L 566.00 434.86 L 566.00 390.68 C 565.99 348.63 565.90 346.35 564.04 343.30 C 560.24 337.06 559.81 337.00 520.55 337.00 C 500.63 337.00 485.00 337.39 485.00 337.88 C 485.00 338.37 489.56 349.51 495.13 362.63 C 500.70 375.76 506.05 388.52 507.03 391.00 C 508.46 394.64 522.46 427.17 530.99 446.66 Z M 528.18 953.25 C 528.74 954.76 529.37 956.00 529.59 956.00 C 530.10 956.00 535.25 945.74 558.07 899.25 C 568.40 878.21 576.31 861.00 575.65 861.00 C 574.99 861.00 565.49 879.25 554.54 901.56 C 543.59 923.86 534.33 942.30 533.96 942.52 C 533.45 942.84 526.15 926.56 521.34 914.42 C 521.11 913.83 522.62 912.81 524.71 912.17 C 526.79 911.52 530.75 909.75 533.50 908.24 L 538.50 905.49 L 538.77 883.25 L 539.04 861.00 L 506.27 861.15 C 487.55 861.23 476.62 861.58 480.78 861.96 C 485.25 862.37 488.66 863.23 489.61 864.18 C 490.84 865.41 524.22 942.48 528.18 953.25 Z M 508.99 940.75 C 509.00 957.58 509.36 967.00 510.00 967.00 C 511.54 967.00 511.34 914.74 509.80 913.20 C 509.14 912.54 506.75 912.00 504.48 912.00 C 494.18 912.00 480.63 905.52 471.05 896.00 C 460.31 885.35 455.00 872.83 455.00 858.18 C 455.00 843.22 460.16 831.04 470.88 820.69 C 480.83 811.08 494.52 805.00 506.18 805.00 L 509.00 805.00 L 509.00 831.00 C 509.00 847.67 509.36 857.00 510.00 857.00 C 510.64 857.00 511.00 847.79 511.00 831.37 L 511.00 805.74 L 514.73 806.34 C 521.36 807.42 530.53 812.71 535.85 818.53 C 540.40 823.50 545.00 832.53 545.00 836.48 C 545.00 837.25 545.51 838.20 546.14 838.59 C 547.66 839.52 546.52 833.45 543.82 826.25 C 540.02 816.10 527.78 806.65 514.84 803.87 C 507.00 802.19 492.88 803.32 484.76 806.29 C 469.30 811.93 459.04 821.07 451.81 835.64 C 447.74 843.86 447.52 844.77 447.15 854.81 C 446.67 867.77 447.97 874.11 453.21 884.23 C 462.22 901.67 481.26 913.19 502.74 914.20 L 508.99 914.50 Z M 528.03 907.48 C 520.21 911.45 519.95 911.30 515.20 900.02 C 511.04 890.13 511.00 889.92 511.00 877.82 C 511.00 863.82 509.27 862.40 508.79 876.01 L 508.50 884.50 L 504.25 874.23 C 501.91 868.58 500.00 863.75 500.00 863.48 C 500.00 863.22 506.89 863.00 515.30 863.00 C 525.87 863.00 530.97 863.37 531.80 864.20 C 532.65 865.05 533.00 871.13 533.00 885.18 L 533.00 904.97 Z M 509.00 780.56 C 509.00 784.19 509.44 787.00 510.00 787.00 C 510.57 787.00 511.00 783.98 511.00 779.94 C 511.00 775.49 510.63 773.11 510.00 773.50 C 509.45 773.84 509.00 777.02 509.00 780.56 Z M 508.00 793.00 C 508.00 794.65 508.52 795.07 510.25 794.82 C 511.49 794.64 512.50 793.83 512.50 793.00 C 512.50 792.17 511.49 791.36 510.25 791.18 C 508.52 790.93 508.00 791.35 508.00 793.00 Z M 509.00 973.50 C 509.00 974.88 509.45 976.00 510.00 976.00 C 510.55 976.00 511.00 974.88 511.00 973.50 C 511.00 972.12 510.55 971.00 510.00 971.00 C 509.45 971.00 509.00 972.12 509.00 973.50 Z" stroke-linecap="round"></path>
</g>
		<g id="e63eeb6b-a9c5-4056-a333-472d127d3c79-child-2">
<path style="stroke: rgb(193,193,193); stroke-opacity: 1.00; stroke-width: 0; stroke-dasharray: none; stroke-linecap: butt; stroke-dashoffset: 0; stroke-linejoin: miter; stroke-miterlimit: 4; fill: rgb(138,107,46); fill-opacity: 1.00; fill-rule: nonzero; opacity: 1;" transform="matrix(1.171875 0 0 1.171875 600 600) matrix(1 0 0 1 125.11 32.427331)  translate(-637.11, -544.427331)" d="M 863.04 940.28 C 859.60 932.15 851.88 913.80 845.88 899.50 C 831.87 866.07 831.02 864.24 829.10 863.37 C 828.22 862.96 824.35 862.34 820.50 861.98 C 816.65 861.62 828.24 861.25 846.25 861.16 L 879.00 861.00 L 879.00 905.68 L 874.25 908.22 C 871.64 909.62 867.81 911.30 865.75 911.96 C 863.69 912.62 862.00 913.51 862.00 913.94 C 862.00 914.38 864.64 921.15 867.86 929.00 L 873.72 943.26 L 875.88 939.38 C 877.06 937.25 886.34 918.74 896.48 898.25 C 906.63 877.76 915.39 861.00 915.96 861.00 C 916.53 861.00 917.00 861.21 917.00 861.46 C 917.00 862.59 870.77 954.53 870.08 954.78 C 869.65 954.94 866.49 948.41 863.04 940.28 Z M 850.00 941.33 L 850.00 915.32 L 840.54 914.16 C 823.72 912.09 812.66 906.74 802.29 895.65 C 792.45 885.13 787.52 872.30 787.65 857.50 C 787.86 832.15 805.22 810.86 830.95 804.40 C 838.10 802.61 853.60 802.88 860.22 804.93 C 865.75 806.64 876.02 813.93 879.64 818.72 C 883.49 823.81 887.23 833.37 886.76 836.92 C 886.47 839.11 886.22 838.82 885.11 835.00 C 882.98 827.60 877.90 819.05 873.50 815.44 C 868.69 811.51 859.62 807.14 854.54 806.31 L 851.00 805.74 L 850.78 831.62 L 850.55 857.50 L 850.03 831.51 C 849.65 813.02 849.91 806.91 847.40 805.40 C 846.18 804.67 844.32 805.02 841.41 805.56 C 840.64 805.71 839.80 805.86 838.88 806.02 C 819.72 809.25 803.48 824.17 797.61 843.93 C 795.06 852.52 795.47 865.55 798.57 874.82 C 801.84 884.62 805.66 890.55 813.18 897.50 C 822.26 905.91 835.87 912.00 845.57 912.00 C 848.63 912.00 849.97 912.47 850.44 913.72 C 851.19 915.66 851.23 966.11 850.48 966.85 C 850.22 967.12 850.00 955.63 850.00 941.33 Z M 865.70 908.80 C 867.24 908.14 869.74 906.76 871.25 905.73 L 874.00 903.86 L 874.00 885.65 C 874.00 884.11 874.01 882.66 874.01 881.32 C 874.05 871.50 874.07 866.91 871.79 864.79 C 869.79 862.93 866.04 862.95 859.01 862.99 C 857.91 862.99 856.73 863.00 855.46 863.00 L 840.03 863.00 L 842.08 868.25 C 843.22 871.14 845.35 876.20 846.82 879.50 L 849.50 885.50 L 850.61 865.50 L 850.81 877.63 C 850.97 888.01 851.35 890.53 853.40 895.13 C 854.72 898.08 856.72 902.64 857.84 905.25 C 860.00 910.26 861.12 910.77 865.70 908.80 Z M 507.82 456.75 C 507.54 454.78 507.00 454.50 498.64 453.98 C 499.01 453.99 499.39 453.99 499.75 453.99 L 509.00 454.00 L 509.00 450.55 C 509.00 448.32 502.88 432.74 491.61 406.30 C 487.71 397.14 483.77 387.91 480.33 379.82 C 487.26 395.90 495.93 416.25 505.52 439.00 C 507.36 443.37 511.16 452.23 515.37 461.99 C 514.58 460.28 513.96 458.97 513.63 458.35 L 512.08 455.50 L 511.88 459.50 C 511.77 461.70 511.57 487.58 511.44 517.00 C 511.31 546.42 511.15 573.76 511.10 577.75 C 511.02 583.48 510.69 585.00 509.50 585.00 C 508.18 585.00 508.00 577.35 508.00 522.14 L 508.00 459.29 L 498.51 458.92 C 508.04 458.99 508.12 458.83 507.82 456.75 Z M 512.82 200.00 L 511.50 200.00 L 511.64 245.25 C 511.82 303.06 511.22 324.00 509.36 324.00 C 508.23 324.00 508.00 313.56 508.00 261.50 L 508.00 199.49 C 509.61 199.62 511.22 199.79 512.82 200.00 Z M 530.99 446.66 C 522.46 427.17 508.46 394.64 507.03 391.00 C 506.54 389.77 504.97 385.97 502.82 380.85 C 504.39 384.53 505.71 387.58 506.58 389.50 C 507.75 392.12 507.93 389.48 507.96 368.68 C 508.00 346.54 508.12 344.88 509.75 345.19 C 511.34 345.50 511.51 347.22 511.59 363.51 C 511.64 373.41 511.47 384.76 511.20 388.75 C 510.78 395.12 510.56 395.79 509.36 394.25 C 508.13 392.69 508.09 392.77 508.90 395.00 C 509.95 397.89 531.94 449.10 532.56 450.09 C 533.19 451.11 543.82 446.93 552.79 442.59 C 548.19 444.84 543.14 447.07 539.38 448.44 L 532.81 450.82 Z M 511.43 151.75 C 511.07 154.52 510.38 156.00 509.44 156.00 C 508.24 156.00 508.00 153.12 508.00 139.00 C 508.00 124.98 508.25 122.00 509.42 122.00 C 510.44 122.00 510.98 123.75 511.34 128.25 C 512.05 136.98 512.08 146.73 511.43 151.75 Z M 514.00 173.00 C 511.17 175.83 507.41 175.56 505.33 172.38 C 503.80 170.04 503.77 169.49 505.09 167.13 C 507.12 163.51 512.18 162.98 514.40 166.17 C 516.50 169.16 516.42 170.58 514.00 173.00 Z M 511.12 603.25 C 511.04 605.86 510.55 607.00 509.50 607.00 C 508.32 607.00 508.00 605.60 508.00 600.43 C 508.00 594.70 508.23 593.90 509.75 594.19 C 510.90 594.42 511.46 595.38 511.37 597.02 C 511.30 598.38 511.18 601.19 511.12 603.25 Z M 848.44 793.90 C 847.38 792.19 850.72 789.32 852.13 790.73 C 852.75 791.35 852.99 792.57 852.66 793.43 C 851.97 795.24 849.44 795.52 848.44 793.90 Z M 396.91 392.78 C 394.20 388.51 391.73 384.08 389.52 379.50 C 384.18 368.40 380.67 357.62 378.82 346.19 C 382.02 363.15 388.19 378.84 396.91 392.78 Z M 382.56 286.74 C 388.66 266.48 400.04 248.64 416.88 232.79 C 400.43 248.27 389.26 265.80 382.56 286.74 Z M 362.52 362.68 C 361.33 358.84 360.30 354.92 359.44 350.92 C 358.53 346.73 357.88 341.01 357.51 334.88 C 358.21 344.52 359.88 353.79 362.52 362.68 Z M 357.22 319.37 C 357.32 315.34 357.56 311.56 357.96 308.38 C 358.69 302.59 359.81 296.91 361.32 291.36 C 358.93 300.33 357.57 309.66 357.22 319.37 Z M 461.26 446.02 C 451.26 442.13 441.67 436.92 432.78 430.58 C 441.46 436.70 450.99 441.89 461.26 446.02 Z M 525.72 202.50 C 531.86 204.10 537.89 206.26 543.74 209.00 C 539.07 206.81 531.96 204.31 525.72 202.50 Z M 416.88 232.79 C 433.71 216.96 453.66 206.50 474.34 201.86 C 453.33 206.64 433.38 217.27 416.88 232.79 Z M 398.92 420.73 C 390.89 413.27 383.84 404.89 377.91 395.71 C 381.53 401.24 385.63 406.59 390.20 411.76 C 392.96 414.89 395.87 417.88 398.92 420.73 Z M 477.36 457.52 C 473.84 457.11 470.70 456.62 468.23 456.08 C 465.84 455.56 463.47 454.99 461.13 454.37 C 466.46 455.71 471.87 456.77 477.36 457.52 Z M 464.54 344.12 C 462.62 341.02 460.63 339.03 457.90 337.73 C 460.46 338.86 462.19 340.46 463.79 342.73 C 463.93 342.92 464.18 343.39 464.54 344.12 Z M 494.20 360.44 C 489.06 348.29 485.00 338.34 485.00 337.88 C 485.00 338.25 489.33 348.78 494.20 360.44 Z M 487.30 452.91 C 482.15 452.17 477.04 451.07 472.00 449.64 C 476.98 451.02 482.27 452.15 487.30 452.91 Z M 557.49 558.81 L 558.83 556.77 C 558.12 558.10 557.59 558.92 557.49 558.81 Z" stroke-linecap="round"></path>
</g>
		<g id="e63eeb6b-a9c5-4056-a333-472d127d3c79-child-3">
<path style="stroke: rgb(193,193,193); stroke-opacity: 1.00; stroke-width: 0; stroke-dasharray: none; stroke-linecap: butt; stroke-dashoffset: 0; stroke-linejoin: miter; stroke-miterlimit: 4; fill: rgb(248,247,242); fill-opacity: 1.00; fill-rule: nonzero; opacity: 1;" transform="matrix(1.171875 0 0 1.171875 600 600) matrix(1 0 0 1 0 0)  translate(-512, -512)" d="M 0.00 512.00 L 0.00 0.00 L 512.00 0.00 L 1024.00 0.00 L 1024.00 362.00 L 1024.00 724.00 L 682.50 724.00 L 341.00 724.00 L 341.00 874.00 L 341.00 1024.00 L 170.50 1024.00 L 0.00 1024.00 L 0.00 512.00 Z M 168.35 917.50 C 168.00 915.01 168.15 913.88 168.72 914.50 C 169.56 915.40 183.32 946.44 185.97 953.42 C 186.57 954.99 187.22 956.10 187.42 955.89 C 189.40 953.76 234.68 861.00 233.74 861.00 C 233.05 861.00 223.28 879.43 212.02 901.95 C 200.77 924.47 191.33 942.67 191.03 942.39 C 190.74 942.10 187.76 935.49 184.41 927.69 L 178.32 913.50 L 183.17 911.81 C 185.84 910.87 189.82 909.10 192.01 907.87 L 196.00 905.63 L 196.00 883.32 L 196.00 861.00 L 163.25 861.13 C 139.62 861.23 132.69 861.50 138.35 862.09 C 147.08 863.02 148.42 863.74 149.96 868.33 C 150.54 870.07 154.80 880.50 159.44 891.50 C 164.81 904.25 167.51 911.85 166.91 912.47 C 166.29 913.10 163.15 912.87 158.02 911.80 C 131.69 906.36 112.03 883.36 112.03 858.00 C 112.03 833.89 130.24 811.45 153.88 806.44 C 157.52 805.67 161.96 805.03 163.75 805.02 L 167.00 805.00 L 167.00 831.67 C 167.00 846.33 167.18 858.15 167.40 857.92 C 167.62 857.69 167.96 845.87 168.15 831.66 L 168.50 805.82 L 172.50 806.46 C 185.98 808.60 197.88 819.58 202.06 833.75 C 202.75 836.09 203.65 838.00 204.05 838.00 C 205.26 838.00 203.11 829.88 200.45 824.38 C 197.65 818.57 190.28 811.21 184.17 808.09 C 164.64 798.12 136.61 803.32 119.93 820.00 C 99.86 840.08 98.58 870.58 116.84 893.68 C 121.81 899.97 133.78 908.10 142.17 910.89 C 147.67 912.72 159.87 914.87 165.25 914.97 C 166.87 915.00 167.01 916.99 167.16 941.25 L 167.33 967.50 L 168.12 944.50 C 168.55 931.85 168.66 919.70 168.35 917.50 Z M 170.00 792.89 C 170.00 791.69 169.30 791.00 168.06 791.00 C 165.54 791.00 164.52 792.71 165.99 794.48 C 167.50 796.31 170.00 795.31 170.00 792.89 Z M 511.12 603.25 C 511.18 601.19 511.30 598.38 511.37 597.02 C 511.46 595.38 510.90 594.42 509.75 594.19 C 508.23 593.90 508.00 594.70 508.00 600.43 C 508.00 605.60 508.32 607.00 509.50 607.00 C 510.55 607.00 511.04 605.86 511.12 603.25 Z M 511.10 577.75 C 511.15 573.76 511.31 546.42 511.44 517.00 C 511.57 487.58 511.77 461.70 511.88 459.50 L 512.08 455.50 L 513.63 458.35 C 514.48 459.92 517.21 466.00 519.70 471.85 C 527.89 491.07 557.18 558.49 557.49 558.81 C 557.66 558.99 558.93 556.74 560.31 553.81 C 561.69 550.89 586.94 499.94 616.41 440.60 C 645.89 381.25 670.00 332.51 670.00 332.28 C 670.00 332.05 668.78 332.01 667.28 332.18 C 664.74 332.48 661.47 338.76 616.03 430.72 C 589.34 484.73 567.24 528.95 566.93 528.97 C 566.51 528.99 538.16 463.92 535.44 456.69 C 535.16 455.93 537.99 454.68 543.25 453.23 C 552.05 450.80 565.45 444.82 573.25 439.83 L 578.00 436.79 L 578.00 384.39 L 578.00 331.99 L 501.00 332.24 C 450.51 332.41 424.00 332.84 423.99 333.50 C 423.99 334.10 429.91 334.71 438.74 335.03 C 460.28 335.80 462.19 337.05 469.99 355.50 C 472.32 361.00 482.05 383.86 491.61 406.30 C 502.88 432.74 509.00 448.32 509.00 450.55 L 509.00 454.00 L 499.75 453.99 C 489.24 453.98 473.37 450.78 462.37 446.46 C 417.45 428.82 386.56 391.11 378.42 344.00 C 376.21 331.23 376.94 308.12 379.94 296.00 C 386.15 270.89 398.07 250.49 416.88 232.79 C 439.89 211.15 469.61 199.00 499.57 199.00 L 508.00 199.00 L 508.00 261.50 C 508.00 313.56 508.23 324.00 509.36 324.00 C 511.22 324.00 511.82 303.06 511.64 245.25 L 511.50 200.00 L 514.00 200.00 C 518.67 200.01 535.26 205.02 543.74 209.00 C 554.99 214.27 563.18 220.26 571.89 229.58 C 582.86 241.34 589.10 253.00 593.47 269.94 C 595.75 278.78 598.01 281.72 597.99 275.83 C 597.98 269.54 593.93 255.49 589.49 246.35 C 579.25 225.24 561.40 209.48 538.09 200.97 C 522.31 195.22 517.43 194.50 494.00 194.51 C 473.88 194.52 471.80 194.70 461.65 197.27 C 430.94 205.03 406.12 220.04 387.56 242.09 C 370.96 261.80 361.03 284.06 357.96 308.38 C 356.47 320.26 357.17 340.42 359.44 350.92 C 371.00 404.34 411.77 443.75 468.23 456.08 C 473.98 457.33 483.29 458.33 492.75 458.69 L 508.00 459.29 L 508.00 522.14 C 508.00 577.35 508.18 585.00 509.50 585.00 C 510.69 585.00 511.02 583.48 511.10 577.75 Z M 514.00 173.00 C 516.42 170.58 516.50 169.16 514.40 166.17 C 512.18 162.98 507.12 163.51 505.09 167.13 C 503.77 169.49 503.80 170.04 505.33 172.38 C 507.41 175.56 511.17 175.83 514.00 173.00 Z M 511.43 151.75 C 512.08 146.73 512.05 136.98 511.34 128.25 C 510.98 123.75 510.44 122.00 509.42 122.00 C 508.25 122.00 508.00 124.98 508.00 139.00 C 508.00 153.12 508.24 156.00 509.44 156.00 C 510.38 156.00 511.07 154.52 511.43 151.75 Z M 509.00 973.50 C 509.00 972.12 509.45 971.00 510.00 971.00 C 510.55 971.00 511.00 972.12 511.00 973.50 C 511.00 974.88 510.55 976.00 510.00 976.00 C 509.45 976.00 509.00 974.88 509.00 973.50 Z M 508.99 940.75 L 508.99 914.50 L 502.74 914.20 C 481.26 913.19 462.22 901.67 453.21 884.23 C 447.97 874.11 446.67 867.77 447.15 854.81 C 447.52 844.77 447.74 843.86 451.81 835.64 C 459.04 821.07 469.30 811.93 484.76 806.29 C 492.88 803.32 507.00 802.19 514.84 803.87 C 527.78 806.65 540.02 816.10 543.82 826.25 C 546.52 833.45 547.66 839.52 546.14 838.59 C 545.51 838.20 545.00 837.25 545.00 836.48 C 545.00 832.53 540.40 823.50 535.85 818.53 C 530.53 812.71 521.36 807.42 514.73 806.34 L 511.00 805.74 L 511.00 831.37 C 511.00 847.79 510.64 857.00 510.00 857.00 C 509.36 857.00 509.00 847.67 509.00 831.00 L 509.00 805.00 L 506.18 805.00 C 494.52 805.00 480.83 811.08 470.88 820.69 C 460.16 831.04 455.00 843.22 455.00 858.18 C 455.00 872.83 460.31 885.35 471.05 896.00 C 480.63 905.52 494.18 912.00 504.48 912.00 C 506.75 912.00 509.14 912.54 509.80 913.20 C 511.34 914.74 511.54 967.00 510.00 967.00 C 509.36 967.00 509.00 957.58 508.99 940.75 Z M 528.18 953.25 C 524.22 942.48 490.84 865.41 489.61 864.18 C 488.66 863.23 485.25 862.37 480.78 861.96 C 476.62 861.58 487.55 861.23 506.27 861.15 L 539.04 861.00 L 538.77 883.25 L 538.50 905.49 L 533.50 908.24 C 530.75 909.75 526.79 911.52 524.71 912.17 C 522.62 912.81 521.11 913.83 521.34 914.42 C 526.15 926.56 533.45 942.84 533.96 942.52 C 534.33 942.30 543.59 923.86 554.54 901.56 C 565.49 879.25 574.99 861.00 575.65 861.00 C 576.31 861.00 568.40 878.21 558.07 899.25 C 535.25 945.74 530.10 956.00 529.59 956.00 C 529.37 956.00 528.74 954.76 528.18 953.25 Z M 528.03 907.48 L 533.00 904.97 L 533.00 885.18 C 533.00 871.13 532.65 865.05 531.80 864.20 C 530.97 863.37 525.87 863.00 515.30 863.00 C 506.89 863.00 500.00 863.22 500.00 863.48 C 500.00 863.75 501.91 868.58 504.25 874.23 L 508.50 884.50 L 508.79 876.01 C 509.27 862.40 511.00 863.82 511.00 877.82 C 511.00 889.92 511.04 890.13 515.20 900.02 C 519.95 911.30 520.21 911.45 528.03 907.48 Z M 508.00 793.00 C 508.00 791.35 508.52 790.93 510.25 791.18 C 511.49 791.36 512.50 792.17 512.50 793.00 C 512.50 793.83 511.49 794.64 510.25 794.82 C 508.52 795.07 508.00 794.65 508.00 793.00 Z M 509.00 780.56 C 509.00 777.02 509.45 773.84 510.00 773.50 C 510.63 773.11 511.00 775.49 511.00 779.94 C 511.00 783.98 510.57 787.00 510.00 787.00 C 509.44 787.00 509.00 784.19 509.00 780.56 Z M 176.04 908.60 C 175.51 907.20 173.65 902.79 171.91 898.78 C 169.20 892.53 168.76 890.37 168.82 883.50 C 168.86 879.10 168.52 873.47 168.07 871.00 C 167.34 867.01 167.24 867.49 167.13 875.25 C 167.06 880.06 166.66 884.00 166.25 883.99 C 165.84 883.99 163.63 879.26 161.35 873.49 L 157.19 863.00 L 172.52 863.00 C 185.13 863.00 188.14 863.28 189.43 864.57 C 190.75 865.89 191.00 869.24 191.00 885.55 L 191.00 904.97 L 186.25 907.35 C 178.30 911.35 177.14 911.49 176.04 908.60 Z M 532.56 450.09 C 531.94 449.10 509.95 397.89 508.90 395.00 C 508.09 392.77 508.13 392.69 509.36 394.25 C 510.56 395.79 510.78 395.12 511.20 388.75 C 511.47 384.76 511.64 373.41 511.59 363.51 C 511.51 347.22 511.34 345.50 509.75 345.19 C 508.12 344.88 508.00 346.54 507.96 368.68 C 507.93 389.48 507.75 392.12 506.58 389.50 C 502.06 379.44 485.00 338.62 485.00 337.88 C 485.00 337.39 500.63 337.00 520.55 337.00 C 559.81 337.00 560.24 337.06 564.04 343.30 C 565.90 346.35 565.99 348.63 566.00 390.68 L 566.00 434.86 L 563.25 436.81 C 556.27 441.74 533.49 451.60 532.56 450.09 Z" stroke-linecap="round"></path>
</g>
</g>
</g>

  </svg>